<svg xmlns="http://www.w3.org/2000/svg" width="1280" height="980" viewBox="0 0 1280 980" shape-rendering="crispEdges">
  <defs>
    <linearGradient id="panelBg" x1="0" y1="0" x2="1" y2="1">
      <stop offset="0" stop-color="#2f3a49"/>
      <stop offset="1" stop-color="#1a222c"/>
    </linearGradient>

    <symbol id="slot" viewBox="0 0 50 50">
      <rect x="0" y="0" width="50" height="50" fill="#151a20"/>
      <rect x="1" y="1" width="48" height="48" fill="#3b4858"/>
      <rect x="3" y="3" width="44" height="44" fill="#272f3a"/>
    </symbol>

    <symbol id="arrow" viewBox="0 0 32 18">
      <rect x="0" y="7" width="18" height="4" fill="#cfd6de"/>
      <polygon points="18,1 32,9 18,17" fill="#cfd6de"/>
    </symbol>

    <symbol id="icon-rotten-flesh" viewBox="0 0 48 48">
      <rect width="48" height="48" fill="#543c2f"/>
      <rect x="6" y="8" width="36" height="30" fill="#7e5b48"/>
      <rect x="10" y="12" width="8" height="6" fill="#9d7463"/>
      <rect x="26" y="18" width="10" height="6" fill="#a87f6a"/>
      <rect x="20" y="28" width="14" height="6" fill="#6b4d3e"/>
    </symbol>

    <symbol id="icon-obsidian" viewBox="0 0 48 48">
      <rect width="48" height="48" fill="#1a1230"/>
      <rect x="6" y="6" width="36" height="36" fill="#2b2049"/>
      <rect x="10" y="10" width="10" height="8" fill="#4e3a74"/>
      <rect x="24" y="16" width="12" height="10" fill="#584281"/>
      <rect x="16" y="30" width="18" height="8" fill="#24193d"/>
    </symbol>

    <symbol id="icon-iron-block" viewBox="0 0 48 48">
      <rect width="48" height="48" fill="#9aa3ad"/>
      <rect x="4" y="4" width="40" height="40" fill="#cfd6de"/>
      <rect x="8" y="8" width="32" height="32" fill="#b9c1c9"/>
      <rect x="8" y="8" width="32" height="6" fill="#e3e8ed"/>
      <rect x="8" y="34" width="32" height="6" fill="#8f98a2"/>
    </symbol>

    <symbol id="icon-redstone-torch" viewBox="0 0 48 48">
      <rect width="48" height="48" fill="#201711"/>
      <rect x="20" y="10" width="8" height="24" fill="#7d5e46"/>
      <rect x="16" y="6" width="16" height="8" fill="#d04949"/>
      <rect x="14" y="4" width="20" height="3" fill="#f77d7d"/>
      <rect x="19" y="34" width="10" height="8" fill="#5d4535"/>
    </symbol>

    <symbol id="icon-glowstone" viewBox="0 0 48 48">
      <rect width="48" height="48" fill="#4f3a19"/>
      <rect x="6" y="6" width="36" height="36" fill="#b88935"/>
      <rect x="10" y="10" width="12" height="10" fill="#f4cf69"/>
      <rect x="24" y="18" width="14" height="10" fill="#e8b953"/>
      <rect x="12" y="28" width="22" height="10" fill="#d29c41"/>
    </symbol>

    <symbol id="icon-redstone-block" viewBox="0 0 48 48">
      <rect width="48" height="48" fill="#5f1212"/>
      <rect x="5" y="5" width="38" height="38" fill="#b82525"/>
      <rect x="8" y="8" width="32" height="10" fill="#da4b4b"/>
      <rect x="8" y="22" width="32" height="16" fill="#9d1d1d"/>
    </symbol>

    <symbol id="icon-lapis-block" viewBox="0 0 48 48">
      <rect width="48" height="48" fill="#0b2a58"/>
      <rect x="5" y="5" width="38" height="38" fill="#2059b0"/>
      <rect x="9" y="9" width="12" height="12" fill="#4e85d8"/>
      <rect x="24" y="14" width="14" height="12" fill="#3a71c8"/>
      <rect x="12" y="28" width="24" height="10" fill="#174997"/>
    </symbol>

    <symbol id="icon-ender-pearl" viewBox="0 0 48 48">
      <rect width="48" height="48" fill="#122c1f"/>
      <circle cx="24" cy="24" r="14" fill="#5ac79b"/>
      <circle cx="20" cy="20" r="6" fill="#9df1cc"/>
      <circle cx="28" cy="28" r="5" fill="#3da77f"/>
    </symbol>

    <symbol id="icon-amethyst-shard" viewBox="0 0 48 48">
      <rect width="48" height="48" fill="#2a1f3e"/>
      <polygon points="24,4 36,17 30,42 18,42 12,17" fill="#9d7be0"/>
      <polygon points="24,7 31,18 27,36 21,36 17,18" fill="#c7aef9"/>
      <polygon points="24,7 31,18 24,18" fill="#e8dbff"/>
    </symbol>

    <symbol id="icon-bow" viewBox="0 0 48 48">
      <rect width="48" height="48" fill="#1b1f24"/>
      <path d="M32 8 C20 10, 12 20, 12 24 C12 28, 20 38, 32 40" fill="none" stroke="#9b6f47" stroke-width="6"/>
      <line x1="34" y1="8" x2="34" y2="40" stroke="#d2d8df" stroke-width="2"/>
      <rect x="24" y="21" width="10" height="6" fill="#7b5537"/>
    </symbol>

    <symbol id="icon-string" viewBox="0 0 48 48">
      <rect width="48" height="48" fill="#192029"/>
      <path d="M8 30 C14 16, 34 16, 40 30" fill="none" stroke="#f6f0dd" stroke-width="4"/>
      <path d="M8 35 C14 21, 34 21, 40 35" fill="none" stroke="#dad2bf" stroke-width="3"/>
    </symbol>

    <symbol id="icon-turret-wand" viewBox="0 0 48 48">
      <rect width="48" height="48" fill="#15111e"/>
      <rect x="20" y="8" width="8" height="28" fill="#7c5f48"/>
      <rect x="17" y="4" width="14" height="8" fill="#8c1018"/>
      <rect x="15" y="2" width="18" height="4" fill="#da3838"/>
      <rect x="18" y="36" width="12" height="8" fill="#c2cad1"/>
    </symbol>

    <symbol id="icon-summon-terminal" viewBox="0 0 48 48">
      <rect width="48" height="48" fill="#12181f"/>
      <rect x="4" y="6" width="40" height="30" fill="#2b3542"/>
      <rect x="8" y="10" width="32" height="16" fill="#1db390"/>
      <rect x="12" y="30" width="24" height="4" fill="#607387"/>
      <rect x="16" y="36" width="16" height="6" fill="#3d4b5b"/>
    </symbol>

    <symbol id="icon-teleport-module" viewBox="0 0 48 48">
      <rect width="48" height="48" fill="#0f1a28"/>
      <rect x="6" y="8" width="36" height="32" fill="#26384f"/>
      <rect x="10" y="12" width="28" height="24" fill="#4d6989"/>
      <circle cx="24" cy="24" r="8" fill="#66e0ff"/>
      <circle cx="24" cy="24" r="4" fill="#b9f3ff"/>
    </symbol>

    <symbol id="icon-multishot-module" viewBox="0 0 48 48">
      <rect width="48" height="48" fill="#20162b"/>
      <rect x="6" y="8" width="36" height="32" fill="#3b2850"/>
      <rect x="10" y="12" width="28" height="24" fill="#5b3b7d"/>
      <polygon points="16,30 23,18 30,30" fill="#f4c14f"/>
      <polygon points="12,30 18,20 24,30" fill="#ffd77a"/>
      <polygon points="24,30 30,20 36,30" fill="#e8af3d"/>
    </symbol>

    <symbol id="icon-core-module" viewBox="0 0 48 48">
      <rect width="48" height="48" fill="#1b2623"/>
      <rect x="6" y="8" width="36" height="32" fill="#2f4a44"/>
      <rect x="10" y="12" width="28" height="24" fill="#3a665d"/>
      <rect x="20" y="14" width="8" height="20" fill="#f0d97e"/>
      <rect x="14" y="20" width="20" height="8" fill="#f0d97e"/>
      <rect x="22" y="16" width="4" height="16" fill="#fff3b2"/>
    </symbol>
  </defs>

  <rect width="1280" height="980" fill="#0f141b"/>
  <text x="40" y="42" fill="#e4ecf5" font-size="28" font-family="'Microsoft YaHei', sans-serif">MyTurretMod 9宫格合成图标示例（SVG）</text>

  <g transform="translate(32,62)">
    <rect width="600" height="260" rx="16" fill="url(#panelBg)" stroke="#526173"/>
    <text x="20" y="34" fill="#dbe5f0" font-size="20" font-family="'Microsoft YaHei', sans-serif">召唤法杖</text>
    <g transform="translate(24,60)">
      <use href="#slot" x="0" y="0"/><use href="#slot" x="56" y="0"/><use href="#slot" x="112" y="0"/>
      <use href="#slot" x="0" y="56"/><use href="#slot" x="56" y="56"/><use href="#slot" x="112" y="56"/>
      <use href="#slot" x="0" y="112"/><use href="#slot" x="56" y="112"/><use href="#slot" x="112" y="112"/>
      <use href="#icon-rotten-flesh" x="57" y="1" width="48" height="48"/>
      <use href="#icon-obsidian" x="57" y="57" width="48" height="48"/>
      <use href="#icon-iron-block" x="57" y="113" width="48" height="48"/>
      <use href="#arrow" x="176" y="72" width="32" height="18"/>
      <use href="#slot" x="216" y="56"/>
      <use href="#icon-turret-wand" x="217" y="57" width="48" height="48"/>
    </g>
  </g>

  <g transform="translate(648,62)">
    <rect width="600" height="260" rx="16" fill="url(#panelBg)" stroke="#526173"/>
    <text x="20" y="34" fill="#dbe5f0" font-size="20" font-family="'Microsoft YaHei', sans-serif">召唤终端</text>
    <g transform="translate(24,60)">
      <use href="#slot" x="0" y="0"/><use href="#slot" x="56" y="0"/><use href="#slot" x="112" y="0"/>
      <use href="#slot" x="0" y="56"/><use href="#slot" x="56" y="56"/><use href="#slot" x="112" y="56"/>
      <use href="#slot" x="0" y="112"/><use href="#slot" x="56" y="112"/><use href="#slot" x="112" y="112"/>
      <use href="#icon-redstone-torch" x="1" y="57" width="48" height="48"/>
      <use href="#icon-glowstone" x="57" y="57" width="48" height="48"/>
      <use href="#icon-redstone-torch" x="113" y="57" width="48" height="48"/>
      <use href="#icon-redstone-block" x="57" y="113" width="48" height="48"/>
      <use href="#arrow" x="176" y="72" width="32" height="18"/>
      <use href="#slot" x="216" y="56"/>
      <use href="#icon-summon-terminal" x="217" y="57" width="48" height="48"/>
    </g>
  </g>

  <g transform="translate(32,344)">
    <rect width="600" height="260" rx="16" fill="url(#panelBg)" stroke="#526173"/>
    <text x="20" y="34" fill="#dbe5f0" font-size="20" font-family="'Microsoft YaHei', sans-serif">传送升级模块</text>
    <g transform="translate(24,60)">
      <use href="#slot" x="0" y="0"/><use href="#slot" x="56" y="0"/><use href="#slot" x="112" y="0"/>
      <use href="#slot" x="0" y="56"/><use href="#slot" x="56" y="56"/><use href="#slot" x="112" y="56"/>
      <use href="#slot" x="0" y="112"/><use href="#slot" x="56" y="112"/><use href="#slot" x="112" y="112"/>
      <use href="#icon-lapis-block" x="57" y="1" width="48" height="48"/>
      <use href="#icon-ender-pearl" x="57" y="57" width="48" height="48"/>
      <use href="#icon-redstone-block" x="57" y="113" width="48" height="48"/>
      <use href="#arrow" x="176" y="72" width="32" height="18"/>
      <use href="#slot" x="216" y="56"/>
      <use href="#icon-teleport-module" x="217" y="57" width="48" height="48"/>
    </g>
  </g>

  <g transform="translate(648,344)">
    <rect width="600" height="260" rx="16" fill="url(#panelBg)" stroke="#526173"/>
    <text x="20" y="34" fill="#dbe5f0" font-size="20" font-family="'Microsoft YaHei', sans-serif">多重射击升级模块</text>
    <g transform="translate(24,60)">
      <use href="#slot" x="0" y="0"/><use href="#slot" x="56" y="0"/><use href="#slot" x="112" y="0"/>
      <use href="#slot" x="0" y="56"/><use href="#slot" x="56" y="56"/><use href="#slot" x="112" y="56"/>
      <use href="#slot" x="0" y="112"/><use href="#slot" x="56" y="112"/><use href="#slot" x="112" y="112"/>
      <use href="#icon-amethyst-shard" x="57" y="1" width="48" height="48"/>
      <use href="#icon-bow" x="57" y="57" width="48" height="48"/>
      <use href="#icon-string" x="57" y="113" width="48" height="48"/>
      <use href="#arrow" x="176" y="72" width="32" height="18"/>
      <use href="#slot" x="216" y="56"/>
      <use href="#icon-multishot-module" x="217" y="57" width="48" height="48"/>
    </g>
  </g>

  <g transform="translate(340,626)">
    <rect width="600" height="300" rx="16" fill="url(#panelBg)" stroke="#526173"/>
    <text x="20" y="34" fill="#dbe5f0" font-size="20" font-family="'Microsoft YaHei', sans-serif">战术中枢模块（文档扩展示例）</text>
    <text x="20" y="58" fill="#9fb0c4" font-size="14" font-family="'Microsoft YaHei', sans-serif">注：该配方用于展示第五个案例，当前版本默认数据包未注册。</text>
    <g transform="translate(24,80)">
      <use href="#slot" x="0" y="0"/><use href="#slot" x="56" y="0"/><use href="#slot" x="112" y="0"/>
      <use href="#slot" x="0" y="56"/><use href="#slot" x="56" y="56"/><use href="#slot" x="112" y="56"/>
      <use href="#slot" x="0" y="112"/><use href="#slot" x="56" y="112"/><use href="#slot" x="112" y="112"/>
      <use href="#icon-redstone-block" x="1" y="1" width="48" height="48"/>
      <use href="#icon-ender-pearl" x="57" y="1" width="48" height="48"/>
      <use href="#icon-redstone-block" x="113" y="1" width="48" height="48"/>
      <use href="#icon-glowstone" x="1" y="57" width="48" height="48"/>
      <use href="#icon-teleport-module" x="57" y="57" width="48" height="48"/>
      <use href="#icon-glowstone" x="113" y="57" width="48" height="48"/>
      <use href="#icon-redstone-block" x="1" y="113" width="48" height="48"/>
      <use href="#icon-multishot-module" x="57" y="113" width="48" height="48"/>
      <use href="#icon-redstone-block" x="113" y="113" width="48" height="48"/>
      <use href="#arrow" x="176" y="72" width="32" height="18"/>
      <use href="#slot" x="216" y="56"/>
      <use href="#icon-core-module" x="217" y="57" width="48" height="48"/>
    </g>
  </g>
</svg>
